<?xml version="1.0" standalone="no"?>
<!DOCTYPE svg PUBLIC "-//W3C//DTD SVG 20010904//EN"
 "http://www.w3.org/TR/2001/REC-SVG-20010904/DTD/svg10.dtd">
<svg version="1.0" xmlns="http://www.w3.org/2000/svg"
 width="576.000000pt" height="576.000000pt" viewBox="0 0 576.000000 576.000000"
 preserveAspectRatio="xMidYMid meet">
<metadata>
Created by potrace 1.11, written by Peter Selinger 2001-2013
</metadata>
<g transform="translate(0.000000,576.000000) scale(0.100000,-0.100000)"
fill="#000000" stroke="none">
<path d="M0 2880 l0 -2880 2880 0 2880 0 0 2880 0 2880 -2880 0 -2880 0 0
-2880z m3050 956 c0 -33 1 -33 53 -40 28 -3 103 -6 165 -6 l112 0 0 -40 0 -40
40 0 40 0 0 -85 0 -85 -39 0 -39 0 -7 -79 -7 -80 -36 -3 c-36 -3 -37 -4 -40
-45 -3 -43 -3 -43 -43 -43 -39 0 -39 0 -39 -40 l0 -40 -40 0 -40 0 0 -40 0
-40 -79 0 -80 0 -3 -42 c-3 -43 -3 -43 -45 -46 l-43 -3 0 -41 0 -41 -61 7
c-34 3 -88 6 -120 6 l-57 0 -7 74 -7 74 -79 7 -78 7 -3 41 c-3 42 -3 42 -45
45 l-43 3 0 -45 0 -46 40 0 c40 0 40 0 40 -40 l0 -40 -162 -2 -163 -3 -3 -37
c-3 -37 -4 -38 -43 -38 l-39 0 2 163 3 162 38 3 c36 3 37 4 37 43 0 38 -1 39
-35 39 -34 0 -35 1 -35 40 l0 40 40 0 40 0 0 80 0 80 40 0 40 0 0 45 0 45 40
0 c40 0 40 0 40 40 l0 40 208 2 207 3 3 38 3 37 165 0 164 0 0 -34z m574 -437
c3 -34 6 -109 6 -165 l0 -104 40 0 40 0 0 -125 0 -125 -80 0 -80 0 0 40 0 40
-45 0 -45 0 0 45 0 45 -125 0 -125 0 0 40 0 40 45 0 45 0 0 40 0 40 40 0 40 0
0 40 0 40 40 0 40 0 0 85 0 85 79 0 78 0 7 -61z m-1744 -269 l0 -80 -41 0 -42
0 7 53 c3 28 6 64 6 80 0 24 4 27 35 27 l35 0 0 -80z m1330 -125 c0 -34 -1
-35 -40 -35 -39 0 -40 1 -40 35 0 34 1 35 40 35 39 0 40 -1 40 -35z m170 -85
l0 -40 40 0 40 0 0 -40 0 -40 -40 0 -40 0 0 -40 0 -40 -45 0 -45 0 0 40 0 40
-40 0 -40 0 0 40 0 40 40 0 40 0 0 40 0 40 45 0 45 0 0 -40z m-1000 -80 l0
-40 -40 0 -40 0 0 40 0 40 40 0 40 0 0 -40z m500 -5 l0 -45 40 0 c39 0 40 -1
40 -34 l0 -33 -60 -6 c-33 -4 -87 -4 -120 0 -60 6 -60 6 -60 39 0 31 2 33 38
36 36 3 37 4 40 46 3 42 3 42 43 42 l39 0 0 -45z m-748 -82 l3 -38 83 -3 82
-3 0 -34 c0 -33 -1 -34 -42 -37 -43 -3 -43 -3 -46 -45 -3 -42 -4 -43 -38 -43
-33 0 -34 1 -34 40 l0 40 -45 0 c-51 0 -51 1 -39 108 7 51 7 52 40 52 31 0 33
-2 36 -37z m1496 -243 l2 -210 -40 0 -40 0 0 125 0 125 -85 0 -85 0 0 -40 0
-40 40 0 40 0 0 -125 0 -125 -40 0 -40 0 0 40 0 40 -45 0 -45 0 0 40 0 40 45
0 45 0 0 45 0 45 -45 0 -45 0 0 40 0 40 -285 0 -285 0 0 40 0 40 200 0 200 0
0 40 0 40 45 0 45 0 0 -40 0 -40 125 0 125 0 0 39 c0 40 0 40 43 44 23 2 60 4
82 5 l41 2 2 -210z m162 -85 l0 -125 -40 0 -40 0 0 125 0 125 40 0 40 0 0
-125z m-1990 80 c0 -34 -1 -35 -40 -35 -39 0 -40 1 -40 35 0 34 1 35 40 35 39
0 40 -1 40 -35z m588 -82 c3 -43 3 -43 43 -43 l39 0 0 -80 0 -80 -85 0 -85 0
0 80 0 80 -40 0 c-40 0 -40 0 -40 39 0 40 0 40 43 44 23 2 60 4 82 3 40 -1 40
-1 43 -43z m242 -38 l0 -85 -40 0 -40 0 0 85 0 85 40 0 40 0 0 -85z m439 79
l61 -7 0 -38 c0 -39 0 -39 40 -39 l40 0 0 -40 0 -40 -40 0 -40 0 0 40 0 40
-85 0 -85 0 0 45 c0 51 -2 50 109 39z m-1019 -44 l0 -40 -40 0 -40 0 0 40 0
40 40 0 40 0 0 -40z m750 21 c0 -10 -3 -46 -6 -80 l-7 -61 -33 0 c-26 0 -34 4
-34 19 0 10 -3 46 -6 80 l-7 61 47 0 c38 0 46 -3 46 -19z m160 -266 l0 -35
104 0 c56 0 130 -3 164 -6 l61 -7 3 -36 c3 -35 4 -36 46 -39 l43 -3 -3 -42
c-3 -41 -4 -42 -40 -45 -36 -3 -38 -5 -38 -36 l0 -33 -67 -6 c-38 -4 -94 -7
-125 -7 l-58 0 0 -35 0 -35 -85 0 -85 0 0 35 0 35 -125 0 -125 0 0 45 0 45
-40 0 -40 0 0 40 0 40 40 0 40 0 0 -40 0 -40 40 0 40 0 0 80 0 80 85 0 85 0 0
40 0 40 40 0 c39 0 40 -1 40 -35z m660 -165 l0 -40 -40 0 -40 0 0 40 0 40 40
0 40 0 0 -40z"/>
<path d="M3130 3335 c0 -34 1 -35 40 -35 39 0 40 1 40 35 0 34 -1 35 -40 35
-39 0 -40 -1 -40 -35z"/>
<path d="M3380 3170 l0 -40 40 0 40 0 0 40 0 40 -40 0 -40 0 0 -40z"/>
</g>
</svg>
